<svg xmlns="http://www.w3.org/2000/svg" xmlns:xlink="http://www.w3.org/1999/xlink" viewBox="0 0 600 600"><defs><style>.cls-1,.cls-10,.cls-11,.cls-12,.cls-6,.cls-7,.cls-8{fill:none;}.cls-2{fill:url(#radial-gradient);}.cls-3{clip-path:url(#clip-path);}.cls-4{fill:#242c51;}.cls-5{fill:#ffc;}.cls-6,.cls-7,.cls-8{stroke:#2e004a;}.cls-11,.cls-12,.cls-6,.cls-7,.cls-8{stroke-miterlimit:10;}.cls-6{stroke-width:4px;}.cls-7{stroke-width:2.5px;}.cls-8{stroke-width:1.5px;}.cls-9{fill:#2e004a;}.cls-10,.cls-11{stroke:#d3e5e3;stroke-width:2px;}.cls-10{stroke-linejoin:round;}.cls-12{stroke:#c99b35;}.cls-13{fill:#fff;}</style><radialGradient id="radial-gradient" cx="300" cy="300" fx="460.6145183208327" fy="123.85337684049591" r="302.95" gradientUnits="userSpaceOnUse"><stop offset="0.02" stop-color="#ffd6a2"/><stop offset="0.03" stop-color="#e5bd9a"/><stop offset="0.05" stop-color="#bc968d"/><stop offset="0.07" stop-color="#967281"/><stop offset="0.09" stop-color="#765377"/><stop offset="0.12" stop-color="#5a396f"/><stop offset="0.15" stop-color="#442468"/><stop offset="0.19" stop-color="#331462"/><stop offset="0.23" stop-color="#28085f"/><stop offset="0.29" stop-color="#21025d"/><stop offset="0.46" stop-color="#1f005c"/><stop offset="0.64" stop-color="#200041"/><stop offset="0.8" stop-color="#20002d"/></radialGradient><clipPath id="clip-path"><circle class="cls-1" cx="300" cy="300" r="300"/></clipPath></defs><title>Polaris Designs Logo</title><g id="Background"><circle class="cls-2" cx="300" cy="300" r="300"/></g><g id="Buildings_V2" data-name="Buildings V2"><g class="cls-3"><polygon class="cls-4" points="124.85 457.63 74.79 448.01 74.79 320.62 124.85 305.2 124.85 457.63"/><polygon class="cls-4" points="213.13 474.59 152.88 463.01 152.88 254.96 213.13 228.88 213.13 474.59"/><polygon class="cls-4" points="300 491.28 227.89 477.42 227.89 171.5 300 131.28 300 491.28"/><polygon class="cls-4" points="372.11 476.83 300 490.58 300 131.28 372.11 171.5 372.11 476.83"/><polygon class="cls-4" points="457.01 461.11 400.6 471.95 400.6 234.83 457.01 259.25 457.01 461.11"/><polygon class="cls-4" points="491.35 454.52 466.34 459.32 466.34 305.2 491.35 312.69 491.35 454.52"/><polygon class="cls-4" points="546.02 443.41 505.92 451.01 505.92 297.55 546.02 312.4 546.02 443.41"/><polygon class="cls-5" points="108.65 346.27 88.75 349.91 88.75 333.12 108.65 328.23 108.65 346.27"/><polygon class="cls-5" points="108.65 401.19 88.75 401.05 88.75 384.22 108.65 383.13 108.65 401.19"/><polygon class="cls-5" points="116.53 380.81 108.65 381.22 108.65 346.19 116.53 344.83 116.53 380.81"/><polygon class="cls-5" points="174.62 443.81 163.41 442.4 163.41 314.91 174.62 312.16 174.62 443.81"/><polygon class="cls-5" points="199.4 329.68 174.62 334.21 174.62 312.16 199.4 306.09 199.4 329.68"/><polygon class="cls-5" points="199.4 329.68 186.59 332.02 186.59 444.58 199.4 446.17 199.4 329.68"/><polygon class="cls-5" points="186.59 444.58 174.62 443.1 174.62 423.43 186.59 424.25 186.59 444.58"/><polygon class="cls-5" points="243.81 453.99 227.89 451.93 227.89 298.97 243.81 295.06 243.81 453.99"/><polygon class="cls-5" points="300 461.28 243.81 453.99 243.81 427.51 300 431.28 300 461.28"/><polygon class="cls-5" points="320.31 458.64 300 461.28 300 312.88 320.31 316.53 320.31 458.64"/><polygon class="cls-5" points="356.19 321.57 321.06 315.15 321.06 286.45 356.19 295.06 356.19 321.57"/><polygon class="cls-5" points="371.64 451.3 356.19 453.27 356.19 321.57 371.64 324.4 371.64 451.3"/><polygon class="cls-5" points="356.19 400.55 321.06 400.67 321.06 372.5 356.19 374.53 356.19 400.55"/><polygon class="cls-5" points="425.38 445.82 413.41 447.4 413.41 332.67 425.38 334.84 425.38 445.82"/><polygon class="cls-5" points="436.59 401.19 425 401.26 425 378.73 436.59 379.4 436.59 401.19"/><polygon class="cls-5" points="446.7 442.11 436.59 443.41 436.59 401.19 446.7 401.13 446.7 442.11"/><polygon class="cls-5" points="483.49 438.1 474.62 439.32 474.62 324.02 483.49 326.3 483.49 438.1"/><polygon class="cls-5" points="536.63 354.93 519.22 351.6 519.22 334.83 536.63 339.34 536.63 354.93"/><polygon class="cls-5" points="519.19 368.16 512.89 367.44 512.89 350.63 519.19 351.74 519.19 368.16"/><polygon class="cls-5" points="519.19 416.08 512.96 416.48 512.96 400.67 519.19 400.63 519.19 416.08"/><polygon class="cls-5" points="536.63 430.61 519.19 432.87 519.19 416.08 536.63 414.94 536.63 430.61"/><polygon class="cls-5" points="541.96 415.04 536.63 415.4 536.63 384.98 541.96 385.28 541.96 415.04"/><polygon class="cls-5" points="536.63 384.98 519.19 383.96 519.19 368.53 536.63 370.57 536.63 384.98"/><polygon class="cls-5" points="447.12 379.79 436.59 379.18 436.59 336.87 447.12 338.78 447.12 379.79"/><polygon class="cls-5" points="436.59 336.26 413.41 332.02 413.41 309.11 436.59 314.8 436.59 336.26"/><polygon class="cls-5" points="80.91 432.87 87.34 433.7 87.34 333.46 80.91 335.04 80.91 432.87"/><line class="cls-6" x1="227.89" y1="222.49" x2="300" y2="191.28"/><line class="cls-6" x1="227.89" y1="247.98" x2="300" y2="221.28"/><line class="cls-6" x1="227.89" y1="273.48" x2="300" y2="251.28"/><line class="cls-6" x1="227.89" y1="298.97" x2="300" y2="281.28"/><line class="cls-6" x1="300" y1="311.28" x2="227.89" y2="324.46"/><line class="cls-6" x1="227.89" y1="349.96" x2="300" y2="341.28"/><line class="cls-6" x1="300" y1="371.28" x2="227.89" y2="375.45"/><line class="cls-6" x1="227.89" y1="400.94" x2="300" y2="401.28"/><line class="cls-6" x1="300" y1="431.28" x2="227.89" y2="426.44"/><line class="cls-6" x1="227.89" y1="451.93" x2="300" y2="461.28"/><line class="cls-7" x1="213.13" y1="253.45" x2="152.88" y2="275.77"/><line class="cls-7" x1="152.88" y1="296.57" x2="213.13" y2="278.02"/><line class="cls-7" x1="152.88" y1="317.87" x2="213.13" y2="302.59"/><line class="cls-7" x1="152.88" y1="338.18" x2="213.13" y2="327.16"/><line class="cls-7" x1="213.13" y1="351.73" x2="152.88" y2="358.99"/><line class="cls-7" x1="152.88" y1="379.79" x2="213.13" y2="376.31"/><line class="cls-7" x1="213.13" y1="401.11" x2="152.88" y2="400.6"/><line class="cls-7" x1="152.88" y1="421.4" x2="213.13" y2="425.45"/><line class="cls-7" x1="213.13" y1="450.02" x2="152.88" y2="442.21"/><line class="cls-8" x1="124.85" y1="324.26" x2="74.79" y2="336.54"/><line class="cls-8" x1="124.85" y1="343.31" x2="74.79" y2="351.73"/><line class="cls-8" x1="74.79" y1="368.39" x2="124.85" y2="362.36"/><line class="cls-8" x1="124.85" y1="381.42" x2="74.79" y2="384.31"/><line class="cls-8" x1="74.79" y1="400.24" x2="124.85" y2="400.85"/><line class="cls-8" x1="124.85" y1="419.52" x2="74.79" y2="416.16"/><line class="cls-8" x1="74.79" y1="432.09" x2="124.85" y2="438.58"/><line class="cls-6" x1="227.89" y1="197" x2="300" y2="161.28"/><line class="cls-6" x1="372.11" y1="197" x2="300" y2="161.28"/><line class="cls-6" x1="372.11" y1="222.49" x2="300" y2="191.28"/><line class="cls-6" x1="372.11" y1="247.98" x2="300" y2="221.28"/><line class="cls-6" x1="300" y1="281.28" x2="372.11" y2="298.97"/><line class="cls-6" x1="300" y1="251.28" x2="372.11" y2="273.48"/><line class="cls-6" x1="300" y1="311.28" x2="372.11" y2="324.46"/><line class="cls-6" x1="300" y1="341.28" x2="372.11" y2="349.96"/><line class="cls-6" x1="300" y1="371.28" x2="372.11" y2="375.45"/><line class="cls-6" x1="372.11" y1="401.11" x2="300" y2="401.28"/><line class="cls-6" x1="300" y1="431.28" x2="372.11" y2="426.44"/><line class="cls-6" x1="300" y1="461.28" x2="372.11" y2="451.93"/><line class="cls-7" x1="400.6" y1="258.54" x2="457.01" y2="279.43"/><line class="cls-7" x1="457.01" y1="300" x2="400.6" y2="282.25"/><line class="cls-7" x1="400.6" y1="305.96" x2="457.01" y2="319.81"/><line class="cls-7" x1="400.6" y1="329.68" x2="457.01" y2="339.99"/><line class="cls-7" x1="400.6" y1="353.39" x2="457.01" y2="360.18"/><line class="cls-7" x1="400.6" y1="377.1" x2="457.01" y2="380.37"/><line class="cls-7" x1="457.01" y1="400.55" x2="400.6" y2="400.81"/><line class="cls-7" x1="400.6" y1="424.53" x2="457.01" y2="420.74"/><line class="cls-7" x1="400.6" y1="448.24" x2="457.01" y2="440.93"/><line class="cls-8" x1="466.34" y1="322.1" x2="491.35" y2="328.23"/><line class="cls-8" x1="466.34" y1="341.7" x2="491.35" y2="346.27"/><line class="cls-8" x1="466.34" y1="361.3" x2="491.35" y2="364.31"/><line class="cls-8" x1="466.34" y1="380.91" x2="491.35" y2="382.35"/><line class="cls-8" x1="466.34" y1="400.68" x2="491.35" y2="400.39"/><line class="cls-8" x1="466.34" y1="420.11" x2="491.35" y2="418.44"/><line class="cls-8" x1="466.34" y1="439.72" x2="491.35" y2="436.48"/><line class="cls-8" x1="475.15" y1="456.6" x2="475.15" y2="305.2"/><line class="cls-8" x1="483.47" y1="456.03" x2="483.47" y2="307.76"/><line class="cls-7" x1="413.41" y1="240.37" x2="413.41" y2="469.49"/><line class="cls-7" x1="425.38" y1="467.19" x2="425.38" y2="245.55"/><line class="cls-7" x1="436.59" y1="465.04" x2="436.59" y2="250.41"/><line class="cls-7" x1="447.12" y1="254.96" x2="447.12" y2="463.01"/><line class="cls-6" x1="320.32" y1="487.21" x2="320.32" y2="142.61"/><line class="cls-6" x1="338.98" y1="153.02" x2="338.98" y2="483.79"/><line class="cls-6" x1="356.19" y1="480.02" x2="356.19" y2="162.62"/><line class="cls-6" x1="279.68" y1="142.61" x2="279.68" y2="487.21"/><line class="cls-6" x1="260.15" y1="483.79" x2="261.02" y2="153.02"/><line class="cls-6" x1="243.81" y1="480.02" x2="243.81" y2="162.62"/><line class="cls-7" x1="199.4" y1="234.83" x2="199.4" y2="471.95"/><line class="cls-7" x1="186.59" y1="240.37" x2="186.59" y2="467.19"/><line class="cls-7" x1="174.62" y1="245.55" x2="174.62" y2="465.04"/><line class="cls-7" x1="163.41" y1="250.41" x2="163.41" y2="463.01"/><line class="cls-8" x1="116.53" y1="307.76" x2="116.49" y2="454.53"/><line class="cls-8" x1="108.65" y1="454.52" x2="108.65" y2="310.19"/><line class="cls-8" x1="101.18" y1="312.49" x2="101.18" y2="452.66"/><line class="cls-8" x1="94.08" y1="314.68" x2="94.24" y2="451.75"/><line class="cls-8" x1="87.34" y1="316.75" x2="87.34" y2="450.28"/><line class="cls-8" x1="80.91" y1="318.73" x2="80.91" y2="448.91"/><line class="cls-8" x1="505.92" y1="314.68" x2="547.06" y2="327.35"/><line class="cls-8" x1="506.06" y1="331.84" x2="547.06" y2="341.9"/><line class="cls-8" x1="547.06" y1="356.46" x2="505.92" y2="348.94"/><line class="cls-8" x1="505.63" y1="366.03" x2="547.06" y2="371.02"/><line class="cls-8" x1="547.06" y1="385.58" x2="505.92" y2="383.2"/><line class="cls-8" x1="505.92" y1="400.33" x2="547.06" y2="400.14"/><line class="cls-8" x1="505.92" y1="417.46" x2="547.06" y2="414.7"/><line class="cls-8" x1="547.06" y1="429.25" x2="505.92" y2="434.59"/><line class="cls-8" x1="512.66" y1="300.05" x2="513.11" y2="450.37"/><line class="cls-8" x1="519.09" y1="448.91" x2="519.27" y2="302.49"/><line class="cls-8" x1="525.21" y1="304.69" x2="525.21" y2="447.4"/><line class="cls-8" x1="531.05" y1="446.89" x2="531.05" y2="306.51"/><line class="cls-8" x1="536.63" y1="308.92" x2="536.63" y2="445.82"/><line class="cls-8" x1="542.04" y1="310.93" x2="541.96" y2="444.58"/><path class="cls-9" d="M503.42,300.39V449l-9.57-.86V308.35l-1.76-.55-13.59-4.18,24.92-3.23m5,.75,36.41,13.48-.26,127.15-36.15,6.92V301.14m-2.5-3.59V451.72l41.15-7.88.26-130.95-41.41-15.34Zm0,0-39.16,5.07,24.59,7.57V450.42l14.57,1.3V297.55Zm-39.58,4.94-9.33,1.4,9.75-1.27-.42-.13ZM548,443.67l-.88.17h0l.88-.17Z"/><path class="cls-9" d="M302.5,135.53,369.61,173V474.78L302.5,488.23V135.53m-5,0v352.7l-67.11-13.45V173l67.11-37.44m2.5-4.25v360l72.11-14.45V171.5L300,131.28Zm0,0L227.89,171.5V476.83L300,491.28v-360Z"/><path class="cls-9" d="M127.35,308.3l23,5V452.84l-23,2.06V308.3m-5,.29v146L77.29,446V322.46l45.06-13.87m2.5-3.39L74.79,320.62V448l50.06,9.62V305.2Zm0,0V457.63l28-2.51V311.28l-28-6.08Z"/><path class="cls-9" d="M215.63,232.25l9.76,2.94V470.43l-9.76,1.3V232.25m-5,.44V471.56L155.38,461V256.6l55.25-23.91m2.5-3.81V474.59l14.76-2V233.33l-14.76-4.45Zm0,0L152.88,255V463l60.25,11.58V228.88Z"/><path class="cls-9" d="M398.1,238.13v231l-23.49-2.95V244.79l23.49-6.66m5,.5,51.41,22.26V459.05l-51.41,9.87V238.63m-2.5-3.8-28.49,8.07V468.37L400.6,472V234.83Zm0,0V472L457,461.11V259.25L400.6,234.83Z"/><path class="cls-9" d="M463.84,305.39V456.58l-4.33-.41V306l4.33-.65m5,.49,20,6.16V452.46l-20,3.83V305.88m-2.5-3.39-9.33,1.4V458.45l9.33.87V302.49Zm0,0V459.32l25-4.8V310.19h0l-25-7.7Z"/><polyline class="cls-10" points="300 491.28 227.89 476.83 227.89 171.5 300 131.28 300 491.28 372.11 476.83 372.11 171.5 300 131.28"/><polyline class="cls-10" points="124.85 305.2 74.79 320.62 74.79 448.01 124.85 457.63 124.85 305.2 152.88 311.28 152.88 455.12 124.85 457.63"/><polyline class="cls-10" points="213.13 474.59 152.88 463.01 152.88 254.96 213.13 228.88 213.13 474.59 227.89 472.62 227.89 233.33 213.13 228.88"/><polyline class="cls-10" points="400.6 234.83 457.01 259.25 457.01 461.11 400.6 471.95 400.6 234.83 372.11 242.9 372.11 468.37 400.6 471.95"/><polyline class="cls-10" points="466.34 302.49 457.01 303.88 457.01 458.45 466.34 459.32 466.34 302.49 491.35 310.19 491.35 310.19 491.35 454.52 466.34 459.32"/><line class="cls-11" x1="491.35" y1="450.42" x2="505.63" y2="451.77"/><line class="cls-11" x1="300" y1="491.28" x2="2.96" y2="434.96"/><line class="cls-11" x1="600" y1="433.64" x2="300" y2="491.28"/><polyline class="cls-10" points="505.92 297.55 505.92 451.72 547.07 443.81 547.07 312.79 505.92 297.55 466.34 302.49 491.35 310.19 491.35 451.72 505.92 451.72"/></g></g><g id="Constelation"><g id="Paths"><line id="Path" class="cls-12" x1="294.27" y1="101.94" x2="394.47" y2="101.31"/><line id="Path-2" data-name="Path" class="cls-12" x1="457.48" y1="128.71" x2="394.47" y2="101.31"/><line id="Path-3" data-name="Path" class="cls-12" x1="294.27" y1="101.94" x2="208.3" y2="142.42"/><line id="Path-4" data-name="Path" class="cls-12" x1="179.73" y1="68.35" x2="208.3" y2="142.42"/><line id="Path-5" data-name="Path" class="cls-12" x1="128.22" y1="191.25" x2="208.3" y2="142.42"/><line id="Path-6" data-name="Path" class="cls-12" x1="73.12" y1="136.2" x2="128.22" y2="191.25"/><line id="Path-7" data-name="Path" class="cls-12" x1="179.73" y1="68.35" x2="73.12" y2="136.2"/></g><g id="Stars"><ellipse id="Star" class="cls-5" cx="73.12" cy="136.2" rx="3.91" ry="4.08"/><ellipse id="Star-2" data-name="Star" class="cls-5" cx="128.22" cy="191.25" rx="3.91" ry="4.08"/><ellipse id="Star-3" data-name="Star" class="cls-5" cx="208.3" cy="142.42" rx="3.91" ry="4.08"/><ellipse id="Star-4" data-name="Star" class="cls-5" cx="179.73" cy="68.35" rx="3.91" ry="4.08"/><ellipse id="Star-5" data-name="Star" class="cls-5" cx="294.27" cy="101.94" rx="3.91" ry="4.08"/><ellipse id="Star-6" data-name="Star" class="cls-5" cx="394.47" cy="101.31" rx="3.91" ry="4.08"/><path id="Polaris" class="cls-13" d="M453.46,138a14.5,14.5,0,0,1,13.27-5.22,14.48,14.48,0,0,1-5.23-13.27,14.45,14.45,0,0,1-13.26,5.22A14.5,14.5,0,0,1,453.46,138Z"/></g></g></svg>