<svg xmlns="http://www.w3.org/2000/svg" viewBox="0 0 1985.7 1423.74"><defs><style>.cls-1{fill:#507281;}.cls-2{font-size:12px;fill:#231f20;font-family:MyriadPro-Regular, Myriad Pro;}.cls-3{letter-spacing:-0.09em;}.cls-4{fill:none;stroke:#000;stroke-miterlimit:10;stroke-width:10px;}.cls-5{fill:#466640;}.cls-6{fill:#704525;}.cls-7{fill:#5a994d;}.cls-8{fill:#b7acb7;}.cls-9{fill:#636;}.cls-10{fill:#acb4b5;}.cls-11{fill:#c8eaed;}.cls-12{fill:#967a63;}.cls-13{fill:#963;}.cls-14{fill:#303e42;}.cls-15{fill:#e82127;}.cls-16{fill:#bf7b00;}</style></defs><title>Site Plan</title><g id="Layer_2" data-name="Layer 2"><g id="Base"><path class="cls-1" d="M1981.94,1401.38,1985.7,77.82,0,0C52,232.74,156.68,371.93,200.62,437.77c42.61,60.31,170.78,177.92,213.63,486,0,24.15,36.33,198,36.33,442.65l449.33,5.66,343.86,4.33c402.69,0,697.46,20,697.46,47.35Z"/><text class="cls-2" transform="translate(164.56 1303.91)">1<tspan class="cls-3" x="6.16" y="0">”</tspan><tspan x="9.37" y="0" xml:space="preserve"> - 60</tspan><tspan class="cls-3" x="30.46" y="0">’</tspan></text><line class="cls-4" x1="144.43" y1="1331.26" x2="216.6" y2="1331.26"/></g><g id="Recreation"><g id="Layer_10" data-name="Layer 10"><path class="cls-5" d="M872.05,775l-9.3-15.28c16.79-16.27,13.17-70.89-30.15-101.34l7.8-24.94c115.93,30.42,132.75,36.2,367.14,17,427-9.17,671.66,114.85,682.22,198.49-7.86,63.71-134,135.1-286.61,167.91-242-19.46-204.74-73.81-477.87,36.69l-74.48-78.95c26.69-96.74-18.37-217.39-178.75-199.91"/></g><g id="Layer_12" data-name="Layer 12"><path class="cls-5" d="M429.74,911.82c-2.66-38.55-32.46-214.5-114.25-349h74.45c-4.37,65.13,20.62,105.84,64.34,130.25C491,813,517.73,856.77,552.34,911.82Z"/><path class="cls-5" d="M1393.82,1094.9c-42.62-28.39-205.06,4.27-323.58,78.78v98.41l372,3.34V1246.7Z"/><path class="cls-5" d="M657.45,460.2l-101.19,7.48c-15-2.37-45.56-8.71-80.89-2.53V375l1478.37,61.44V765.22c-48.23-47.07-127-112.12-290.45-143.44L1662.16,504,657.65,460.36"/></g><circle class="cls-6" cx="510.7" cy="583.9" r="113.42"/><path class="cls-7" d="M1984.73,419.78l1-342L0,0C34.81,155.7,93.16,269.52,141.14,347.53Z"/><circle class="cls-8" cx="895.46" cy="929.21" r="144"/><path class="cls-9" d="M725.85,628c-75.38-.73-74.69,38.2-108.85,62.34-51.51,36.4-52.15,101.23-21.88,121.09,54.79,28.47,67.32-24.08,169.35-22.46,51.45,0,88.8-14.63,93.08-56,.44-36.88-25-77.17-81.49-96.1A166.15,166.15,0,0,0,725.85,628"/><circle class="cls-10" cx="1412.28" cy="819.91" r="90"/><circle class="cls-11" cx="1412.28" cy="819.91" r="54"/><path class="cls-12" d="M724.1,641.34c-61.75-.59-61.18,31.3-89.17,51.07-42.19,29.82-42.72,82.93-17.92,99.2,44.89,23.32,55.15-19.73,138.72-18.4,42.15,0,72.75-12,76.26-45.89.36-30.2-20.51-63.21-66.76-78.72a136.48,136.48,0,0,0-41.13-7.26"/></g><g id="Building"><path class="cls-13" d="M1936.3,980.3c1.19-16.84-9.7-29.51-12.94-37.21-11.84,14.73-27.52,29.71-47.43,44.89-240.8,183.54-327.53,128.48-463.65,115.2.58,1.76,1.25,3.59,2,5.54l42.07,133.46c1,3.28,4,5.14,7,4.33l471.33-129.32c2.92-.8,4.87-4,4.54-7.4Z"/><path class="cls-13" d="M1046.65,1184.51q-18.69,9.52-38.43,20.3c-74.9,40.9-160.52,17-242.06-38.74-76.33-52.18-167.48-155.22-224.52-236.19H496.41c5.89,10.68,15.83,48,28.51,67.11,112.67,169.54,112.67,169.54,325.49,288,56.85,31.63,128,1.72,196.24-57.13Z"/><g id="Layer_14" data-name="Layer 14"><path class="cls-13" d="M1116.15,1058.41c-59.36,32.87-68.67,43.77-113.77,63l-9.53-26.51c64.91-14.4,83.22-38.55,96.49-56.37Z"/><path class="cls-13" d="M634.36,905.92c-34-45.89-34-45.89-52.52-71.91l9.44-14.1c27.1,43,42.43,63,62,75.19Z"/></g><path class="cls-13" d="M1242.28,579.88c121.1-11.31,273.87,4.46,406.63,39.41h0v-106L667.24,469.13v51.46C846.2,525.12,1097.9,593.37,1242.28,579.88Z"/><g id="Layer_11" data-name="Layer 11"><path class="cls-14" d="M660.2,519.85c-25,0-45.17.56-45.17,1.25-13.21-23.07-28.92-36.14-47-42.81l92.15-7.81Z"/><g id="Tesla"><path class="cls-15" d="M633.42,492.6l-2.11-2.93a17.89,17.89,0,0,0-7.19,2,6.45,6.45,0,0,0,2.74,2.36c.12-1.39,1-1.73,3.68-1.74l2.88,18.39,2.85-18.38c2.72,0,3.58.34,3.7,1.73a6.51,6.51,0,0,0,2.75-2.36,17.92,17.92,0,0,0-7.2-2Z"/><path class="cls-15" d="M623.22,489.68a13.27,13.27,0,0,0,.57,1.35,20.85,20.85,0,0,1,9.63-2.21h0A20.84,20.84,0,0,1,643,491a8.81,8.81,0,0,0,.57-1.35,23.93,23.93,0,0,0-20.39,0Z"/></g></g></g><g id="Bridges"><polyline class="cls-16" points="590.32 977.98 658.01 930.18 642.5 908.21 574.8 956"/><polyline class="cls-16" points="688.15 1084.56 746.67 1023.57 727.25 1004.94 668.73 1065.94"/><polyline class="cls-16" points="803.47 1176.79 858.95 1104.4 837.25 1087.77 781.77 1160.15"/><polyline class="cls-16" points="992.85 1205.53 976.96 1124.15 950.13 1129.39 966.01 1210.77"/><polyline class="cls-16" points="1469.05 1084.74 1483.98 1006.79 1457.12 1001.64 1442.19 1079.6"/><polyline class="cls-16" points="1719.82 1072.02 1695.22 996.56 1669.22 1005.04 1693.82 1080.5"/><polyline class="cls-16" points="1905.52 949.28 1859.58 899 1839.39 917.45 1885.33 967.73"/><polyline class="cls-16" points="562.67 611.74 509.44 540.13 480.19 561.88 533.42 633.48"/><polyline class="cls-16" points="743.84 607.08 755.95 530.47 729.38 526.27 717.27 602.88"/><polyline class="cls-16" points="898.47 633.48 910.04 549.75 883.39 546.07 871.81 629.8"/><polyline class="cls-16" points="1066.11 649.84 1076.07 577.77 1049.42 574.09 1039.45 646.15"/><polyline class="cls-16" points="1238.26 641.02 1237.44 586.5 1210.54 586.9 1211.36 641.42"/><polyline class="cls-16" points="1408.14 646.97 1414.8 585.35 1388.05 582.46 1381.39 644.08"/><polyline class="cls-16" points="1588.97 673.95 1603.93 615.38 1577.86 608.72 1562.9 667.29"/></g></g></svg>