<svg xmlns="http://www.w3.org/2000/svg" xmlns:xlink="http://www.w3.org/1999/xlink" viewBox="0 0 2160 1584"><defs><style>.cls-1,.cls-15,.cls-2,.cls-6{fill:none;}.cls-1,.cls-10,.cls-15,.cls-2,.cls-6,.cls-7,.cls-8{stroke:#000;}.cls-1,.cls-10,.cls-15,.cls-2,.cls-6{stroke-miterlimit:10;}.cls-2{stroke-width:2px;}.cls-22,.cls-3{font-size:36px;}.cls-3{fill:#231f20;}.cls-11,.cls-19,.cls-22,.cls-3{font-family:MyriadPro-Regular, Myriad Pro;}.cls-4{letter-spacing:-0.09em;}.cls-5{letter-spacing:-0.09em;}.cls-6{stroke-width:10px;}.cls-10,.cls-14,.cls-7{fill:#fff;}.cls-7,.cls-8{stroke-linecap:square;fill-rule:evenodd;}.cls-9{clip-path:url(#clip-path);}.cls-11{font-size:14px;}.cls-12{letter-spacing:-0.01em;}.cls-13{letter-spacing:-0.01em;}.cls-15{stroke-width:6px;}.cls-16{letter-spacing:0em;}.cls-17{letter-spacing:0.01em;}.cls-18{clip-path:url(#clip-path-2);}.cls-19{font-size:13px;}.cls-20{letter-spacing:-0.01em;}.cls-21{letter-spacing:-0.01em;}.cls-23{letter-spacing:0em;}.cls-24{letter-spacing:-0.01em;}.cls-25{letter-spacing:0em;}.cls-26{letter-spacing:0em;}.cls-27{font-size:25px;}.cls-28{letter-spacing:0em;}.cls-29{letter-spacing:0em;}.cls-30{letter-spacing:-0.01em;}.cls-31{letter-spacing:-0.01em;}.cls-32{letter-spacing:0.01em;}.cls-33{letter-spacing:0.01em;}.cls-34{letter-spacing:0em;}.cls-35{letter-spacing:-0.02em;}.cls-36{letter-spacing:-0.04em;}.cls-37{letter-spacing:0.02em;}.cls-38{letter-spacing:0em;}</style><clipPath id="clip-path"><path class="cls-1" d="M2054.94,1489l3.76-1323.55L73,87.59c52,232.74,156.69,371.92,200.63,437.76,42.6,60.32,170.77,177.93,213.63,486,0,24.15,36.33,198,36.33,442.65l449.32,5.66,343.87,4.33c402.68,0,697.45,20,697.45,47.34Z"/></clipPath><clipPath id="clip-path-2"><path class="cls-1" d="M2057.72,507.37l1-342L73,87.59c34.81,155.7,93.17,269.52,141.14,347.53Z"/></clipPath></defs><title>Technical Site Plan</title><g id="Base"><path class="cls-2" d="M2054.94,1489l3.76-1323.55L73,87.59c52,232.74,156.69,371.92,200.63,437.76,42.6,60.32,170.77,177.93,213.63,486,0,24.15,36.33,198,36.33,442.65l449.32,5.66,343.87,4.33c402.68,0,697.45,20,697.45,47.34Z"/><text class="cls-3" transform="translate(1946.98 59.86)">1<tspan class="cls-4" x="18.47" y="0">”</tspan><tspan x="28.12" y="0" xml:space="preserve"> - 60</tspan><tspan class="cls-5" x="91.37" y="0">’</tspan></text><line class="cls-6" x1="1962.75" y1="87.59" x2="2034.92" y2="87.59"/><g id="layer2"><g id="g11797"><path id="path2122" class="cls-7" d="M207.12,1290l8.4,7.87h0l-59.77,2.39L207.12,1290"/><path id="path5805" class="cls-8" d="M207.77,1306.61l7.76-8.52h0l-59.77,2.38,52,6.14"/><path id="path8724" class="cls-7" d="M224.17,1306l-8.39-7.87h0l59.77-2.38L224.17,1306"/><path id="path8726" class="cls-8" d="M223.53,1289.32l-7.76,8.51h0l59.77-2.38-52-6.13"/><path id="path8740" class="cls-7" d="M207.77,1306.61l7.76-8.52h0l2.35,60.59-10.11-52.08"/><path id="path8742" class="cls-8" d="M224.17,1306l-8.39-7.87h0l2.34,60.59,6-52.73"/><path id="path8746" class="cls-7" d="M223.53,1289.32l-7.76,8.51h0l-2.35-60.59,10.11,52.08"/><path id="path8748" class="cls-8" d="M207.12,1290l8.4,7.87h0l-2.35-60.59-6,52.72"/></g></g><g id="layer5"><path id="path1476" d="M209.65,1226.43l2.07-.08,2.81,4.88-.2-5,1.76-.07.28,7.28-2.07.08-2.8-4.89.19,5-1.75.07-.29-7.27"/><path id="path1478" d="M280.74,1291.73l5-.2.06,1.42-3.15.12.05,1.36,3-.12.06,1.42-3,.12.06,1.66,3.25-.13.06,1.42-5.1.2-.28-7.27"/><path id="path1480" d="M142.12,1297.25l1.77-.07,1.45,5.24,1-5.34,1.79-.07,1.43,5.24,1-5.34,1.76-.07-1.41,7.34-2.14.09-1.51-5.48-1.08,5.58-2.13.09-2-7.21"/><path id="path1482" d="M220.53,1362.88l.06,1.54a6.19,6.19,0,0,0-1.17-.35,4.54,4.54,0,0,0-1.07-.1,1.91,1.91,0,0,0-1,.23.6.6,0,0,0-.3.58.56.56,0,0,0,.23.45,2.08,2.08,0,0,0,.79.25l.8.13a3.38,3.38,0,0,1,1.73.67,1.91,1.91,0,0,1,.56,1.39,2.25,2.25,0,0,1-.64,1.83,3.37,3.37,0,0,1-2.13.67,7.93,7.93,0,0,1-1.37-.08,7.82,7.82,0,0,1-1.39-.34l-.06-1.58a6.76,6.76,0,0,0,1.34.51,4.59,4.59,0,0,0,1.25.13,1.63,1.63,0,0,0,.92-.24.71.71,0,0,0,.06-1.11,2.12,2.12,0,0,0-.88-.3l-.73-.13a3.17,3.17,0,0,1-1.6-.68,1.92,1.92,0,0,1-.55-1.36,2.05,2.05,0,0,1,.63-1.7,3,3,0,0,1,2-.67,8.36,8.36,0,0,1,1.22.05,10.77,10.77,0,0,1,1.31.21"/></g></g><g id="Parking"><g class="cls-9"><path class="cls-1" d="M1119.69,1308c-268,81.67-471.89-137.81-510.2-289.21-67.57,0-122.24-2.74-122.24-6.12v-1.3c36.33,236.59,36.33,391.89,36.33,442.65l596.11,7.5V1308"/><path class="cls-10" d="M353.59,631.8c-35.12-49-68.52-83.86-139.46-196.68l320.2,12.55V631.8Z"/><path class="cls-10" d="M2014.22,1511.32l40.72-22.36,1.3-458.28h-59.89c-175.39,225.34-247.56,229.14-467,299.09l9.89,136.41C1736.8,1544.3,1787,1563.45,2014.22,1511.32Z"/></g><path class="cls-1" d="M2054.94,1489l3.76-1323.55L73,87.59c52,232.74,156.69,371.92,200.63,437.76,42.6,60.32,170.77,177.93,213.63,486,0,24.15,36.33,198,36.33,442.65l449.32,5.66,343.87,4.33c402.68,0,697.45,20,697.45,47.34Z"/><text class="cls-11" transform="translate(383.76 480.01)">Block G<tspan x="-35.56" y="16.8">33,156 squa</tspan><tspan class="cls-12" x="34.1" y="16.8">r</tspan><tspan x="38.54" y="16.8">ed </tspan><tspan class="cls-13" x="56.42" y="16.8">f</tspan><tspan x="60.32" y="16.8">eet</tspan></text></g><g id="Recreation"><g id="Layer_10" data-name="Layer 10"><path class="cls-1" d="M945.05,862.63l-9.3-15.28c16.78-16.27,13.17-70.9-30.16-101.35l7.81-24.93c115.92,30.42,132.74,36.2,367.13,17,427-9.17,671.66,114.85,682.22,198.49-7.85,63.71-134,135.1-286.61,167.9-242-19.46-204.74-73.8-477.87,36.7l-83.39-77c46.7-113.66-49-229.89-169.83-201.85"/></g><g id="Layer_12" data-name="Layer 12"><path class="cls-1" d="M498.07,1007.74c-2.67-38.55-42.05-230-123.84-364.45H464.1c-4.38,65.13,19.46,113,63.18,137.42,36.76,119.87,71,172,105.56,227Z"/><path class="cls-1" d="M1466.82,1182.48c-42.63-28.39-205.07,4.28-323.59,78.79v98.41l372,3.34v-28.73Z"/><path class="cls-1" d="M730.45,547.78l-101.2,7.49c-15-2.37-45.56-8.72-80.88-2.53V462.6L2026.73,524V852.81c-48.22-47.08-127-112.13-290.45-143.45l-1.12-117.78L730.64,547.94"/></g><circle class="cls-10" cx="583.69" cy="671.49" r="113.42"/><path class="cls-1" d="M2057.72,507.37l1-342L73,87.59c34.81,155.7,93.17,269.52,141.14,347.53Z"/><circle class="cls-1" cx="966.07" cy="1014.08" r="144" transform="translate(-434.11 980.13) rotate(-45)"/><path class="cls-1" d="M798.84,715.59c-75.38-.72-74.68,38.21-108.85,62.35C638.48,814.33,637.84,879.17,668.11,899c54.8,28.46,67.33-24.08,169.35-22.46,51.45,0,88.8-14.64,93.09-56,.44-36.87-25-77.16-81.5-96.09a166.49,166.49,0,0,0-50.21-8.87"/><circle class="cls-1" cx="1485.28" cy="907.5" r="90"/><circle class="cls-1" cx="1485.28" cy="907.5" r="54"/><path class="cls-1" d="M797.09,728.93c-61.74-.6-61.17,31.29-89.16,51.07-42.2,29.81-42.72,82.93-17.93,99.19,44.89,23.32,55.15-19.72,138.73-18.39,42.15,0,72.74-12,76.25-45.89.36-30.21-20.51-63.21-66.75-78.72a136.18,136.18,0,0,0-41.14-7.26"/><path class="cls-1" d="M854.88,1105.59a144.07,144.07,0,1,0,19.68-202.7A143.93,143.93,0,0,0,854.88,1105.59Z"/><line class="cls-1" x1="966.07" y1="1014.08" x2="1100.92" y2="1064.62"/><line class="cls-1" x1="966.07" y1="1014.08" x2="942.42" y2="872.03"/><path class="cls-14" d="M1102.37,1064.16c46.69-86.44-44.2-228.22-158.49-192.58l23.65,142Z"/><path class="cls-15" d="M945.05,862.31c129.24-28.59,214.31,98.89,169.83,201.85"/><text class="cls-11" transform="translate(1453.18 908.18)"><tspan class="cls-16">S</tspan><tspan x="6.86" y="0">tru</tspan><tspan class="cls-17" x="23.79" y="0">c</tspan><tspan x="30.24" y="0">tu</tspan><tspan class="cls-12" x="42.59" y="0">r</tspan><tspan x="47.03" y="0">e 1</tspan></text></g><g id="Building"><path class="cls-10" d="M2009.29,1067.88c1.19-16.83-9.69-29.51-12.94-37.2-11.84,14.73-27.52,29.71-47.42,44.88-240.81,183.54-327.53,128.49-463.65,115.2.57,1.76,1.24,3.6,2,5.55l42.07,133.46c1,3.28,4,5.14,7,4.33l471.33-129.32c2.92-.81,4.87-4,4.55-7.4Z"/><path class="cls-10" d="M1119.64,1272.09q-18.69,9.54-38.42,20.3c-74.91,40.91-160.53,17-242.07-38.73-76.32-52.18-167.48-155.22-224.51-236.2H569.4c5.9,10.68,15.84,48,28.52,67.12,112.66,169.53,112.66,169.53,325.49,288,56.84,31.64,128,1.73,196.23-57.12Z"/><g id="Layer_14" data-name="Layer 14"><path class="cls-1" d="M1189.14,1146c-59.36,32.87-68.66,43.76-113.76,63l-9.54-26.51c64.92-14.4,86-40.17,99.28-58Z"/><path class="cls-1" d="M707.36,993.51c-34-45.89-34-45.89-52.53-71.91l9.45-14.1c27.1,43,42.43,63,62,75.19Z"/></g><path class="cls-1" d="M1315.27,667.47c121.11-11.31,273.88,4.46,406.63,39.41h0v-106L740.23,556.72v51.46C919.19,612.7,1170.9,681,1315.27,667.47Z"/><g id="Layer_11" data-name="Layer 11"><path class="cls-1" d="M733.19,607.43c-25,0-45.17.56-45.17,1.25-13.2-23.06-28.91-36.14-47-42.81l92.15-7.8Z"/></g></g><g id="Bridges"><g id="Water"><path class="cls-10" d="M1317,677.2C1062.24,701,473.4,470.33,539.47,784.17,549.76,833.06,581.3,903.22,626,975.81q3,4.85,6.05,9.72c57.75,91.58,135.8,185.68,218.13,244.78,79.44,57,162.84,81.47,235.81,39.63q20.13-11.55,39.12-21.68c25.85-13.8,50.17-25.72,73.11-36,44.22-19.76,83.34-33.36,118.56-42.43,264.23-68,308.45,119.16,633.6-128.66C2235.62,823.81,1653.79,645.73,1317,677.2Zm605,341.93c-300.71,219.81-328.2,15-605.14,97.55-21,6.27-43.51,14.21-67.65,24.11-41.13,16.86-87.09,39.44-139,69.29-130.6,75-304.21-72.25-414.75-218.51q-6-7.89-11.67-15.76c-50-68.87-85.05-135.72-94.05-177.06C533.74,542,880.93,758.9,1224,725.12,1590.54,689,2170.76,837.26,1922,1019.13Z"/></g><rect class="cls-10" x="647.97" y="1017.22" width="82.87" height="26.91" transform="translate(-468.22 586.28) rotate(-35.22)"/><rect class="cls-10" x="738.43" y="1118.89" width="84.53" height="26.91" transform="translate(-576.88 911.71) rotate(-46.18)"/><rect class="cls-10" x="847.75" y="1206.19" width="91.21" height="27.34" transform="translate(-618.29 1186.81) rotate(-52.53)"/><rect class="cls-10" x="1030.81" y="1213.59" width="27.34" height="82.91" transform="translate(-221.13 223.39) rotate(-11.05)"/><rect class="cls-10" x="1496.4" y="1117.11" width="79.37" height="27.34" transform="translate(136.5 2426.69) rotate(-79.16)"/><rect class="cls-10" x="1753.84" y="1086.43" width="27.34" height="79.37" transform="matrix(0.95, -0.31, 0.31, 0.95, -262, 603.3)"/><rect class="cls-10" x="1931.78" y="986.9" width="27.34" height="68.11" transform="translate(-179.43 1579.51) rotate(-42.42)"/><rect class="cls-10" x="548.26" y="762.92" width="42.3" height="89.22" transform="translate(-300.01 1277.04) rotate(-83.18)"/><rect class="cls-10" x="770.82" y="640.81" width="77.56" height="26.91" transform="translate(36.99 1351.81) rotate(-81.02)"/><rect class="cls-10" x="921.66" y="663.91" width="84.53" height="26.91" transform="translate(160.95 1539.45) rotate(-82.13)"/><rect class="cls-10" x="1094.38" y="686.1" width="72.75" height="26.91" transform="translate(282.97 1723.87) rotate(-82.13)"/><rect class="cls-10" x="1283.94" y="674.29" width="26.91" height="54.52" transform="translate(-10.39 19.57) rotate(-0.86)"/><rect class="cls-10" x="1440.1" y="688.85" width="61.98" height="26.91" transform="translate(614.73 2089.38) rotate(-83.83)"/><rect class="cls-10" x="1626.18" y="715.47" width="60.46" height="26.91" transform="translate(540.23 2153.41) rotate(-75.67)"/></g><g id="NoNoZone"><rect class="cls-1" x="647.85" y="288.07" width="40.09" height="69.77"/><rect class="cls-1" x="114.08" y="153.93" width="40.09" height="69.77"/><rect class="cls-1" x="1375.23" y="188.82" width="40.09" height="69.77"/><rect class="cls-1" x="1585.24" y="340.33" width="40.09" height="69.77"/><g id="Easement"><polygon class="cls-1" points="214.13 435.12 188.9 392.14 2058.7 465.65 2058.7 507.41 214.13 435.12"/></g><g class="cls-18"><polygon class="cls-1" points="2057.38 302.56 119.61 274.9 121.39 250.06 2059.16 277.72 2057.38 302.56"/></g><path class="cls-1" d="M2057.72,507.37l1-342L73,87.59c34.81,155.7,93.17,269.52,141.14,347.53Z"/></g><g id="Ugh"><text class="cls-11" transform="translate(1232.72 605.61)">Block A<tspan x="-35.8" y="16.8">52,380 squa</tspan><tspan class="cls-12" x="33.86" y="16.8">r</tspan><tspan x="38.3" y="16.8">ed </tspan><tspan class="cls-13" x="56.18" y="16.8">f</tspan><tspan x="60.09" y="16.8">eet</tspan><tspan x="-14.42" y="33.6">1.2024 ac</tspan><tspan class="cls-12" x="40.37" y="33.6">r</tspan><tspan x="44.81" y="33.6">es</tspan></text><text class="cls-11" transform="translate(962.05 1332.5)">Block B<tspan x="-36.29" y="16.8">28,584 squa</tspan><tspan class="cls-12" x="33.37" y="16.8">r</tspan><tspan x="37.81" y="16.8">ed </tspan><tspan class="cls-13" x="55.69" y="16.8">f</tspan><tspan x="59.6" y="16.8">eet</tspan></text><text class="cls-11" transform="translate(1900.42 1159.03)">Block C<tspan x="-36.02" y="16.8">39,492 squa</tspan><tspan class="cls-12" x="33.64" y="16.8">r</tspan><tspan x="38.08" y="16.8">ed </tspan><tspan class="cls-13" x="55.96" y="16.8">f</tspan><tspan x="59.86" y="16.8">eet</tspan></text><text class="cls-11" transform="translate(595.57 1260.07)">Block E<tspan x="-40.23" y="16.8">100,188 squa</tspan><tspan class="cls-12" x="36.62" y="16.8">r</tspan><tspan x="41.05" y="16.8">ed </tspan><tspan class="cls-13" x="58.93" y="16.8">f</tspan><tspan x="62.84" y="16.8">eet</tspan></text><text class="cls-11" transform="translate(1874.52 1309.44)">Block D<tspan x="-39.01" y="16.8">100,368 squa</tspan><tspan class="cls-12" x="37.83" y="16.8">r</tspan><tspan x="42.27" y="16.8">ed </tspan><tspan class="cls-13" x="60.15" y="16.8">f</tspan><tspan x="64.05" y="16.8">eet</tspan></text><text class="cls-11" transform="translate(563.09 591.11)">Block F<tspan x="-36.67" y="16.8">28,080 squa</tspan><tspan class="cls-12" x="32.99" y="16.8">r</tspan><tspan x="37.43" y="16.8">ed </tspan><tspan class="cls-13" x="55.3" y="16.8">f</tspan><tspan x="59.21" y="16.8">eet</tspan></text><text class="cls-11" transform="translate(871.6 1007.83)">Block H<tspan x="-35.52" y="16.8">30,168 squa</tspan><tspan class="cls-12" x="34.14" y="16.8">r</tspan><tspan x="38.58" y="16.8">ed </tspan><tspan class="cls-13" x="56.46" y="16.8">f</tspan><tspan x="60.37" y="16.8">eet</tspan></text><text class="cls-19" transform="translate(985.26 1181.38)">Block I<tspan x="-39.69" y="15.6">1,980 squa</tspan><tspan class="cls-20" x="18.32" y="15.6">r</tspan><tspan x="22.44" y="15.6">ed </tspan><tspan class="cls-21" x="39.05" y="15.6">f</tspan><tspan x="42.67" y="15.6">eet ---</tspan></text><text class="cls-19" transform="translate(735.47 929.23)">Block J<tspan x="-40.84" y="15.6">---- 1,008 squa</tspan><tspan class="cls-20" x="35.9" y="15.6">r</tspan><tspan x="40.02" y="15.6">ed </tspan><tspan class="cls-21" x="56.62" y="15.6">f</tspan><tspan x="60.25" y="15.6">eet</tspan></text><g id="Bridge_Ugh" data-name="Bridge Ugh"><text class="cls-19" transform="translate(955.78 674.11)">B2</text><text class="cls-19" transform="translate(1126.75 699.57)">B3</text><text class="cls-19" transform="translate(1290.57 703.96)">B4</text><text class="cls-19" transform="translate(804.75 654.28)">B1</text><text class="cls-19" transform="translate(1463.23 703.96)">B5</text><text class="cls-19" transform="translate(1647.1 728.94)">B6</text><text class="cls-19" transform="translate(1938.11 1020.97)">B6</text><text class="cls-19" transform="translate(1757.14 1116.92)">B7</text><text class="cls-19" transform="translate(1529.39 1130.8)">B8</text><text class="cls-19" transform="translate(1035.93 1259.36)">B9</text><text class="cls-19" transform="translate(890.08 1218.28)">B10</text><text class="cls-19" transform="translate(774.26 1132.36)">B11</text><text class="cls-19" transform="translate(689.4 1030.7)">B12</text><text class="cls-19" transform="translate(558.71 807.55)">EB</text></g><text class="cls-11" transform="translate(783.76 785.85)">Block K<tspan x="-36.29" y="16.8">26,748 squa</tspan><tspan class="cls-12" x="33.37" y="16.8">r</tspan><tspan x="37.81" y="16.8">ed </tspan><tspan class="cls-13" x="55.69" y="16.8">f</tspan><tspan x="59.6" y="16.8">eet</tspan></text><text class="cls-22" transform="translate(1026.8 51.18)"><tspan class="cls-23">P</tspan><tspan x="18.97" y="0">lano </tspan><tspan class="cls-24" x="92.19" y="0">C</tspan><tspan x="112.68" y="0">e</tspan><tspan class="cls-25" x="130.71" y="0">n</tspan><tspan x="150.55" y="0">t</tspan><tspan class="cls-23" x="162.47" y="0">r</tspan><tspan class="cls-26" x="174.06" y="0">al</tspan><tspan class="cls-27"><tspan x="-152.23" y="30">1717 E Sp</tspan><tspan class="cls-28" x="-51.48" y="30">r</tspan><tspan x="-43.21" y="30">ing </tspan><tspan class="cls-29" x="-4.21" y="30">C</tspan><tspan class="cls-30" x="10.22" y="30">r</tspan><tspan x="18.14" y="30">eek </tspan><tspan class="cls-31" x="60.22" y="30">P</tspan><tspan class="cls-32" x="73.39" y="30">k</tspan><tspan class="cls-33" x="85.44" y="30">w</tspan><tspan x="104.14" y="30">y # 100, </tspan><tspan class="cls-34" x="187.89" y="30">P</tspan><tspan x="201.06" y="30">lan</tspan><tspan class="cls-35" x="232.89" y="30">o</tspan><tspan x="246.01" y="30">,</tspan><tspan class="cls-36" x="251.19" y="30"> </tspan><tspan class="cls-37" x="255.46" y="30">T</tspan><tspan class="cls-38" x="268.44" y="30">X 75074</tspan></tspan></text></g></svg>