<svg xmlns="http://www.w3.org/2000/svg" xmlns:xlink="http://www.w3.org/1999/xlink" viewBox="0 0 2160 1584"><defs><style>.cls-1,.cls-2,.cls-4{fill:none;stroke:#000;stroke-miterlimit:10;}.cls-2{font-size:12px;font-family:MyriadPro-Regular, Myriad Pro;}.cls-3{letter-spacing:-0.09em;}.cls-4{stroke-width:10px;}.cls-5{clip-path:url(#clip-path);}</style><clipPath id="clip-path"><path class="cls-1" d="M2057.72,507.37l1-342L73,87.59c34.81,155.7,93.17,269.52,141.14,347.53Z"/></clipPath></defs><title>Technical Site Plan</title><g id="Base"><path class="cls-1" d="M2054.94,1489l3.76-1323.55L73,87.59c52,232.74,156.69,371.92,200.63,437.76,42.6,60.32,170.77,177.93,213.63,486,0,24.15,36.33,198,36.33,442.65l449.32,5.66,343.87,4.33c402.68,0,697.45,20,697.45,47.34Z"/><text class="cls-2" transform="translate(237.55 1391.5)">1<tspan class="cls-3" x="6.16" y="0">”</tspan><tspan x="9.37" y="0" xml:space="preserve"> - 60</tspan><tspan class="cls-3" x="30.46" y="0">’</tspan></text><line class="cls-4" x1="217.42" y1="1418.85" x2="289.59" y2="1418.85"/></g><g id="Parking"><path class="cls-1" d="M1119.69,1321.57c-268,81.66-471.89-151.41-510.2-302.81-67.57,0-122.24-2.74-122.24-6.12v-1.3c36.33,236.59,36.33,391.89,36.33,442.65l596.11,7.5V1308"/><path class="cls-1" d="M353.59,631.8c-35.12-49-68.52-83.86-139.46-196.68l320.2,12.55V631.8Z"/><path class="cls-1" d="M2014.22,1511.32l40.72-22.36,1.3-458.28h-59.89c-175.39,225.34-247.56,229.14-467,299.09l9.89,136.41C1801.8,1466.18,2014.22,1486.37,2014.22,1511.32Z"/></g><g id="Recreation"><g id="Layer_10" data-name="Layer 10"><path class="cls-1" d="M945.05,862.63l-9.3-15.28c16.78-16.27,13.17-70.9-30.16-101.35l7.81-24.93c115.92,30.42,132.74,36.2,367.13,17,427-9.17,671.66,114.85,682.22,198.49-7.85,63.71-134,135.1-286.61,167.9-242-19.46-204.74-73.8-477.87,36.7l-74.47-79c26.69-96.74-18.37-217.39-178.75-199.92"/></g><g id="Layer_12" data-name="Layer 12"><path class="cls-1" d="M502.74,999.4c-2.67-38.55-32.47-214.49-114.26-348.94h74.46c-4.37,65.12,20.62,105.84,64.34,130.25C564,900.58,590.72,944.36,625.33,999.4Z"/><path class="cls-1" d="M1466.82,1182.48c-42.63-28.39-205.07,4.28-323.59,78.79v98.41l372,3.34v-28.73Z"/><path class="cls-1" d="M730.45,547.78l-101.2,7.49c-15-2.37-45.56-8.72-80.88-2.53V462.6L2026.73,524V852.81c-48.22-47.08-127-112.13-290.45-143.45l-1.12-117.78L730.64,547.94"/></g><circle class="cls-1" cx="583.69" cy="671.49" r="113.42"/><path class="cls-1" d="M2057.72,507.37l1-342L73,87.59c34.81,155.7,93.17,269.52,141.14,347.53Z"/><circle class="cls-1" cx="968.45" cy="1016.8" r="144"/><path class="cls-1" d="M798.84,715.59c-75.38-.72-74.68,38.21-108.85,62.35C638.48,814.33,637.84,879.17,668.11,899c54.8,28.46,67.33-24.08,169.35-22.46,51.45,0,88.8-14.64,93.09-56,.44-36.87-25-77.16-81.5-96.09a166.49,166.49,0,0,0-50.21-8.87"/><circle class="cls-1" cx="1485.28" cy="907.5" r="90"/><circle class="cls-1" cx="1485.28" cy="907.5" r="54"/><path class="cls-1" d="M797.09,728.93c-61.74-.6-61.17,31.29-89.16,51.07-42.2,29.81-42.72,82.93-17.93,99.19,44.89,23.32,55.15-19.72,138.73-18.39,42.15,0,72.74-12,76.25-45.89.36-30.21-20.51-63.21-66.75-78.72a136.18,136.18,0,0,0-41.14-7.26"/></g><g id="Easement_Utilities" data-name="Easement/Utilities"><line class="cls-1" x1="2058.7" y1="165.41" x2="2058.7" y2="507.41"/></g><g id="Building"><path class="cls-1" d="M2009.29,1067.88c1.19-16.83-9.69-29.51-12.94-37.2-11.84,14.73-27.52,29.71-47.42,44.88-240.81,183.54-327.53,128.49-463.65,115.2.57,1.76,1.24,3.6,2,5.55l42.07,133.46c1,3.28,4,5.14,7,4.33l471.33-129.32c2.92-.81,4.87-4,4.55-7.4Z"/><path class="cls-1" d="M1119.64,1272.09q-18.69,9.54-38.42,20.3c-74.91,40.91-160.53,17-242.07-38.73-76.32-52.18-167.48-155.22-224.51-236.2H569.4c5.9,10.68,15.84,48,28.52,67.12,112.66,169.53,112.66,169.53,325.49,288,56.84,31.64,128,1.73,196.23-57.12Z"/><g id="Layer_14" data-name="Layer 14"><path class="cls-1" d="M1189.14,1146c-59.36,32.87-68.66,43.76-113.76,63l-9.54-26.51c64.92-14.4,83.22-38.54,96.49-56.36Z"/><path class="cls-1" d="M707.36,993.51c-34-45.89-34-45.89-52.53-71.91l9.45-14.1c27.1,43,42.43,63,62,75.19Z"/></g><path class="cls-1" d="M1315.27,667.47c121.11-11.31,273.88,4.46,406.63,39.41h0v-106L740.23,556.72v51.46C919.19,612.7,1170.9,681,1315.27,667.47Z"/><g id="Layer_11" data-name="Layer 11"><path class="cls-1" d="M733.19,607.43c-25,0-45.17.56-45.17,1.25-13.2-23.06-28.91-36.14-47-42.81l92.15-7.8Z"/><g id="Tesla"><path class="cls-1" d="M706.41,580.19l-2.1-2.94a18,18,0,0,0-7.2,2,6.51,6.51,0,0,0,2.74,2.36c.13-1.4,1-1.74,3.69-1.74l2.87,18.39,2.86-18.39c2.72,0,3.57.34,3.7,1.74a6.51,6.51,0,0,0,2.74-2.36,18,18,0,0,0-7.2-2Z"/><path class="cls-1" d="M696.21,577.27a12.34,12.34,0,0,0,.58,1.35,20.84,20.84,0,0,1,9.62-2.21h0a20.88,20.88,0,0,1,9.63,2.21,10.49,10.49,0,0,0,.57-1.35,24,24,0,0,0-20.4,0Z"/></g></g></g><g id="Bridges"><g id="Water"><path class="cls-1" d="M1317,677.2C1062.24,701,473.4,470.33,539.47,784.17,549.76,833.06,581.3,903.22,626,975.81q3,4.85,6.05,9.72c57.75,91.58,135.8,185.68,218.13,244.78,79.44,57,162.84,81.47,235.81,39.63q20.13-11.55,39.12-21.68c25.85-13.8,50.17-25.72,73.11-36,44.22-19.76,83.34-33.36,118.56-42.43,264.23-68,308.45,119.16,633.6-128.66C2235.62,823.81,1653.79,645.73,1317,677.2Zm605,341.93c-300.71,219.81-328.2,15-605.14,97.55-21,6.27-43.51,14.21-67.65,24.11-41.13,16.86-87.09,39.44-139,69.29-130.6,75-304.21-72.25-414.75-218.51q-6-7.89-11.67-15.76c-50-68.87-85.05-135.72-94.05-177.06C533.74,542,880.93,758.9,1224,725.12,1590.54,689,2170.76,837.26,1922,1019.13Z"/></g><polyline class="cls-1" points="663.31 1065.56 731.01 1017.77 715.49 995.79 647.8 1043.58"/><polyline class="cls-1" points="761.14 1172.15 819.66 1111.16 800.25 1092.53 741.73 1153.52"/><polyline class="cls-1" points="876.46 1264.38 931.95 1191.99 910.25 1175.35 854.76 1247.74"/><polyline class="cls-1" points="1065.85 1293.12 1049.96 1211.74 1023.12 1216.98 1039.01 1298.36"/><polyline class="cls-1" points="1542.04 1172.33 1556.97 1094.38 1530.12 1089.23 1515.19 1167.18"/><polyline class="cls-1" points="1792.81 1159.61 1768.21 1084.15 1742.22 1092.62 1766.82 1168.08"/><polyline class="cls-1" points="1978.51 1036.87 1932.57 986.59 1912.38 1005.03 1958.33 1055.31"/><polyline class="cls-1" points="635.66 699.32 582.44 627.72 553.18 649.47 606.41 721.07"/><polyline class="cls-1" points="816.84 694.66 828.94 618.06 802.37 613.86 790.26 690.47"/><polyline class="cls-1" points="971.46 721.07 983.03 637.34 956.38 633.65 944.81 717.38"/><polyline class="cls-1" points="1139.1 737.42 1149.06 665.36 1122.41 661.68 1112.45 733.74"/><polyline class="cls-1" points="1311.25 728.61 1310.43 674.09 1283.53 674.49 1284.35 729.01"/><polyline class="cls-1" points="1481.13 734.56 1487.8 672.94 1461.05 670.05 1454.38 731.66"/><polyline class="cls-1" points="1661.96 761.54 1676.92 702.96 1650.86 696.3 1635.89 754.88"/></g><g id="NoNoZone"><rect class="cls-1" x="647.85" y="288.07" width="40.09" height="69.77"/><rect class="cls-1" x="114.08" y="153.93" width="40.09" height="69.77"/><rect class="cls-1" x="1375.23" y="188.82" width="40.09" height="69.77"/><rect class="cls-1" x="1585.24" y="340.33" width="40.09" height="69.77"/><g id="Easement"><polygon class="cls-1" points="214.13 435.12 188.9 392.14 2058.7 465.65 2058.7 507.41 214.13 435.12"/></g><g class="cls-5"><polygon class="cls-1" points="2057.38 302.56 119.61 274.9 121.39 250.06 2059.16 277.72 2057.38 302.56"/></g><path class="cls-1" d="M2057.72,507.37l1-342L73,87.59c34.81,155.7,93.17,269.52,141.14,347.53Z"/></g></svg>