<svg id="Layer_1" data-name="Layer 1" xmlns="http://www.w3.org/2000/svg" xmlns:xlink="http://www.w3.org/1999/xlink" viewBox="0 0 2160 1584"><defs><style>.cls-1,.cls-10,.cls-15,.cls-2,.cls-6{fill:none;}.cls-10,.cls-11,.cls-15,.cls-2,.cls-6,.cls-7,.cls-8{stroke:#000;}.cls-10,.cls-11,.cls-15,.cls-2,.cls-6{stroke-miterlimit:10;}.cls-2{stroke-width:2px;}.cls-12,.cls-13,.cls-16,.cls-18,.cls-19,.cls-20,.cls-21,.cls-22,.cls-23,.cls-24,.cls-25,.cls-26,.cls-27,.cls-3,.cls-4,.cls-5{isolation:isolate;}.cls-20,.cls-21,.cls-4,.cls-5{font-size:36px;}.cls-4,.cls-5{fill:#231f20;}.cls-12,.cls-13,.cls-16,.cls-18,.cls-19,.cls-20,.cls-21,.cls-22,.cls-23,.cls-24,.cls-25,.cls-26,.cls-27,.cls-28,.cls-4,.cls-5{font-family:MyriadPro-Regular, Myriad Pro;}.cls-5{letter-spacing:-0.18em;}.cls-6{stroke-width:10px;}.cls-11,.cls-14,.cls-7{fill:#fff;}.cls-7,.cls-8{stroke-linecap:square;fill-rule:evenodd;}.cls-9{clip-path:url(#clip-path);}.cls-12,.cls-13,.cls-16{font-size:14px;}.cls-13,.cls-30{letter-spacing:-0.01em;}.cls-15{stroke-width:6px;}.cls-16{letter-spacing:0.01em;}.cls-17{clip-path:url(#clip-path-2);}.cls-18,.cls-19{font-size:13px;}.cls-19{letter-spacing:-0.01em;}.cls-21{letter-spacing:-0.01em;}.cls-22,.cls-23,.cls-24,.cls-25,.cls-26,.cls-27{font-size:25px;}.cls-23{letter-spacing:-0.01em;}.cls-24{letter-spacing:0.01em;}.cls-25{letter-spacing:-0.02em;}.cls-26{letter-spacing:-0.04em;}.cls-27{letter-spacing:0.02em;}.cls-28{font-size:18px;}.cls-29{letter-spacing:-0.02em;}.cls-31{letter-spacing:0em;}.cls-32{letter-spacing:0em;}.cls-33{letter-spacing:-0.01em;}.cls-34{letter-spacing:-0.03em;}.cls-35{letter-spacing:0.01em;}.cls-36{letter-spacing:0em;}.cls-37{letter-spacing:-0.01em;}</style><clipPath id="clip-path"><path class="cls-1" d="M2054.94,1489l3.76-1323.55L73,87.59c52,232.74,156.69,371.92,200.63,437.76,42.6,60.32,170.77,177.93,213.63,486,0,24.15,36.33,198,36.33,442.65l449.32,5.66,343.87,4.33c402.68,0,697.45,20,697.45,47.34Z"/></clipPath><clipPath id="clip-path-2"><path class="cls-1" d="M2057.72,507.37l1-342L73,87.59c34.81,155.7,93.17,269.52,141.14,347.53Z"/></clipPath></defs><title>Artboard 1</title><g id="Base"><path class="cls-2" d="M2054.94,1489l3.76-1323.55L73,87.59c52,232.74,156.69,371.92,200.63,437.76,42.6,60.32,170.77,177.93,213.63,486,0,24.15,36.33,198,36.33,442.65l449.32,5.66,343.87,4.33c402.68,0,697.45,20,697.45,47.34Z"/><g class="cls-3"><text class="cls-4" transform="translate(1946.98 59.86)">1</text><text class="cls-5" transform="translate(1965.45 59.86)">”</text><text class="cls-4" transform="translate(1975.1 59.86)"><tspan xml:space="preserve"> - 60</tspan></text><text class="cls-5" transform="translate(2038.35 59.86)">’</text></g><line class="cls-6" x1="1962.75" y1="87.59" x2="2034.92" y2="87.59"/><g id="layer2"><g id="g11797"><path id="path2122" class="cls-7" d="M207.12,1290l8.4,7.87h0l-59.77,2.39L207.12,1290"/><path id="path5805" class="cls-8" d="M207.77,1306.61l7.76-8.52h0l-59.77,2.38,52,6.14"/><path id="path8724" class="cls-7" d="M224.17,1306l-8.39-7.87h0l59.77-2.38L224.17,1306"/><path id="path8726" class="cls-8" d="M223.53,1289.32l-7.76,8.51h0l59.77-2.38-52-6.13"/><path id="path8740" class="cls-7" d="M207.77,1306.61l7.76-8.52h0l2.35,60.59-10.11-52.08"/><path id="path8742" class="cls-8" d="M224.17,1306l-8.39-7.87h0l2.34,60.59,6-52.73"/><path id="path8746" class="cls-7" d="M223.53,1289.32l-7.76,8.51h0l-2.35-60.59,10.11,52.08"/><path id="path8748" class="cls-8" d="M207.12,1290l8.4,7.87h0l-2.35-60.59-6,52.72"/></g></g><g id="layer5"><path id="path1476" d="M209.65,1226.43l2.07-.08,2.81,4.88-.2-5,1.76-.07.28,7.28-2.07.08-2.8-4.89.19,5-1.75.07-.29-7.27"/><path id="path1478" d="M280.74,1291.73l5-.2.06,1.42-3.15.12.05,1.36,3-.12.06,1.42-3,.12.06,1.66,3.25-.13.06,1.42-5.1.2-.28-7.27"/><path id="path1480" d="M142.12,1297.25l1.77-.07,1.45,5.24,1-5.34,1.79-.07,1.43,5.24,1-5.34,1.76-.07-1.41,7.34-2.14.09-1.51-5.48-1.08,5.58-2.13.09-2-7.21"/><path id="path1482" d="M220.53,1362.88l.06,1.54a6.84,6.84,0,0,0-1.17-.35,4.27,4.27,0,0,0-1.07-.1,1.84,1.84,0,0,0-1,.23.6.6,0,0,0-.3.58.56.56,0,0,0,.23.45,2,2,0,0,0,.79.25l.8.13a3.39,3.39,0,0,1,1.73.67,1.91,1.91,0,0,1,.56,1.39,2.25,2.25,0,0,1-.64,1.83,3.32,3.32,0,0,1-2.13.67,7.82,7.82,0,0,1-1.37-.08,7.42,7.42,0,0,1-1.39-.34l-.06-1.58a6.6,6.6,0,0,0,1.34.51,4.79,4.79,0,0,0,1.25.13,1.67,1.67,0,0,0,.92-.24.72.72,0,0,0,.17-1l-.11-.12a2.14,2.14,0,0,0-.88-.3l-.73-.13a3.14,3.14,0,0,1-1.6-.68,1.91,1.91,0,0,1-.55-1.36,2.05,2.05,0,0,1,.63-1.7,3,3,0,0,1,2-.67,8.24,8.24,0,0,1,1.22.05,9.66,9.66,0,0,1,1.31.21"/></g></g><g id="Parking"><g class="cls-9"><path class="cls-10" d="M1119.69,1308c-268,81.67-471.89-137.81-510.2-289.21-67.57,0-122.24-2.74-122.24-6.12v-1.3C523.58,1248,523.58,1403.26,523.58,1454l596.11,7.5V1308"/><path class="cls-11" d="M353.59,631.8c-35.12-49-68.52-83.86-139.46-196.68l320.2,12.55V631.8Z"/><path class="cls-11" d="M2014.22,1511.32l40.72-22.36,1.3-458.28h-59.89c-175.39,225.34-247.56,229.14-467,299.09l9.89,136.41C1736.8,1544.3,1787,1563.45,2014.22,1511.32Z"/></g><path class="cls-10" d="M2054.94,1489l3.76-1323.55L73,87.59c52,232.74,156.69,371.92,200.63,437.76,42.6,60.32,170.77,177.93,213.63,486,0,24.15,36.33,198,36.33,442.65l449.32,5.66,343.87,4.33c402.68,0,697.45,20,697.45,47.34Z"/><g class="cls-3"><text class="cls-12" transform="translate(383.76 480.01)">Block G</text><text class="cls-12" transform="translate(348.2 496.81)">33,156 squa</text><text class="cls-13" transform="translate(417.86 496.81)">r</text><text class="cls-12" transform="translate(422.3 496.81)">ed </text><text class="cls-13" transform="translate(440.18 496.81)">f</text><text class="cls-12" transform="translate(444.08 496.81)">eet</text></g></g><g id="Recreation"><g id="Layer_10" data-name="Layer 10"><path class="cls-10" d="M945.05,862.63l-9.3-15.28c16.78-16.27,13.17-70.9-30.16-101.35l7.81-24.93c115.92,30.42,132.74,36.2,367.13,17,427-9.17,671.66,114.85,682.22,198.49-7.85,63.71-134,135.1-286.61,167.9-242-19.46-204.74-73.8-477.87,36.7l-83.39-77c46.7-113.66-49-229.89-169.83-201.85"/></g><g id="Layer_12" data-name="Layer 12"><path class="cls-10" d="M498.07,1007.74c-2.67-38.55-42.05-230-123.84-364.45H464.1c-4.38,65.13,19.46,113,63.18,137.42,36.76,119.87,71,172,105.56,227Z"/><path class="cls-10" d="M1466.82,1182.48c-42.63-28.39-205.07,4.28-323.59,78.79v98.41l372,3.34v-28.73Z"/><path class="cls-10" d="M730.45,547.78l-101.2,7.49c-15-2.37-45.56-8.72-80.88-2.53V462.6L2026.73,524V852.81c-48.22-47.08-127-112.13-290.45-143.45l-1.12-117.78L730.64,547.94"/></g><circle class="cls-11" cx="583.69" cy="671.49" r="113.42"/><path class="cls-10" d="M2057.72,507.37l1-342L73,87.59c34.81,155.7,93.17,269.52,141.14,347.53Z"/><circle class="cls-10" cx="966.07" cy="1014.08" r="144"/><path class="cls-10" d="M798.84,715.59c-75.38-.72-74.68,38.21-108.85,62.35C638.48,814.33,637.84,879.17,668.11,899c54.8,28.46,67.33-24.08,169.35-22.46,51.45,0,88.8-14.64,93.09-56,.44-36.87-25-77.16-81.5-96.09a166.37,166.37,0,0,0-50.21-8.87"/><circle class="cls-10" cx="1485.28" cy="907.5" r="90"/><circle class="cls-10" cx="1485.28" cy="907.5" r="54"/><path class="cls-10" d="M797.09,728.93c-61.74-.6-61.17,31.29-89.16,51.07-42.2,29.81-42.72,82.93-17.93,99.19,44.89,23.32,55.15-19.72,138.73-18.39,42.15,0,72.74-12,76.25-45.89.36-30.21-20.51-63.21-66.75-78.72a136.22,136.22,0,0,0-41.14-7.26"/><path class="cls-10" d="M854.88,1105.59a144.07,144.07,0,1,0,19.78-202.78l-.1.08a143.92,143.92,0,0,0-19.77,202.58Z"/><line class="cls-10" x1="966.07" y1="1014.08" x2="1100.92" y2="1064.62"/><line class="cls-10" x1="966.07" y1="1014.08" x2="942.42" y2="872.03"/><path class="cls-14" d="M1102.37,1064.16c46.69-86.44-44.2-228.22-158.49-192.58l23.65,142Z"/><path class="cls-15" d="M945.05,862.31c129.24-28.59,214.31,98.89,169.83,201.85"/><g class="cls-3"><text class="cls-12" transform="translate(1453.18 908.18)">S</text><text class="cls-12" transform="translate(1460.04 908.18)">tru</text><text class="cls-16" transform="translate(1476.97 908.18)">c</text><text class="cls-12" transform="translate(1483.42 908.18)">tu</text><text class="cls-13" transform="translate(1495.77 908.18)">r</text><text class="cls-12" transform="translate(1500.21 908.18)">e 1</text></g></g><g id="Building"><path class="cls-11" d="M2009.29,1067.88c1.19-16.83-9.69-29.51-12.94-37.2-11.84,14.73-27.52,29.71-47.42,44.88-240.81,183.54-327.53,128.49-463.65,115.2.57,1.76,1.24,3.6,2,5.55l42.07,133.46c1,3.28,4,5.14,7,4.33l471.33-129.32c2.92-.81,4.87-4,4.55-7.4Z"/><path class="cls-11" d="M1119.64,1272.09q-18.69,9.54-38.42,20.3c-74.91,40.91-160.53,17-242.07-38.73-76.32-52.18-167.48-155.22-224.51-236.2H569.4c5.9,10.68,15.84,48,28.52,67.12,112.66,169.53,112.66,169.53,325.49,288,56.84,31.64,128,1.73,196.23-57.12Z"/><g id="Layer_14" data-name="Layer 14"><path class="cls-10" d="M1189.14,1146c-59.36,32.87-68.66,43.76-113.76,63l-9.54-26.51c64.92-14.4,86-40.17,99.28-58Z"/><path class="cls-10" d="M707.36,993.51c-34-45.89-34-45.89-52.53-71.91l9.45-14.1c27.1,43,42.43,63,62,75.19Z"/></g><path class="cls-10" d="M1315.27,667.47c121.11-11.31,273.88,4.46,406.63,39.41h0v-106L740.23,556.72v51.46C919.19,612.7,1170.9,681,1315.27,667.47Z"/><g id="Layer_11" data-name="Layer 11"><path class="cls-10" d="M733.19,607.43c-25,0-45.17.56-45.17,1.25-13.2-23.06-28.91-36.14-47-42.81l92.15-7.8Z"/></g></g><g id="Bridges"><g id="Water"><path class="cls-11" d="M1317,677.2c-254.76,23.8-843.6-206.87-777.53,107C549.76,833.06,581.3,903.22,626,975.81q3,4.85,6,9.72c57.75,91.58,135.8,185.68,218.13,244.78,79.44,57,162.84,81.47,235.81,39.63q20.13-11.55,39.12-21.68c25.85-13.8,50.17-25.72,73.11-36,44.22-19.76,83.34-33.36,118.56-42.43,264.23-68,308.45,119.16,633.6-128.66C2235.62,823.81,1653.79,645.73,1317,677.2Zm605,341.93c-300.71,219.81-328.2,15-605.14,97.55-21,6.27-43.51,14.21-67.65,24.11-41.13,16.86-87.09,39.44-139,69.29-130.6,75-304.21-72.25-414.75-218.51q-6-7.89-11.67-15.76c-50-68.87-85-135.72-94-177.06C533.74,542,880.93,758.9,1224,725.12,1590.54,689,2170.76,837.26,1922,1019.13Z"/></g><rect class="cls-11" x="647.96" y="1017.24" width="82.87" height="26.91" transform="translate(-468.22 586.26) rotate(-35.22)"/><rect class="cls-11" x="738.41" y="1119" width="84.53" height="26.91" transform="translate(-576.95 911.62) rotate(-46.18)"/><rect class="cls-11" x="847.74" y="1206.21" width="91.21" height="27.34" transform="translate(-618.3 1186.79) rotate(-52.53)"/><rect class="cls-11" x="1030.86" y="1213.52" width="27.34" height="82.91" transform="translate(-221.17 223.47) rotate(-11.05)"/><rect class="cls-11" x="1496.3" y="1117.01" width="79.37" height="27.34" transform="translate(136.62 2426.62) rotate(-79.16)"/><rect class="cls-11" x="1752.57" y="1085.52" width="27.32" height="79.31" transform="translate(-261.91 603.43) rotate(-18.07)"/><rect class="cls-11" x="1931.77" y="986.82" width="27.34" height="68.11" transform="translate(-179.37 1579.56) rotate(-42.42)"/><rect class="cls-11" x="548.27" y="762.94" width="42.3" height="89.22" transform="translate(-300.04 1277.05) rotate(-83.18)"/><rect class="cls-11" x="770.83" y="640.8" width="77.56" height="26.91" transform="translate(37 1351.82) rotate(-81.02)"/><rect class="cls-11" x="921.66" y="663.9" width="84.53" height="26.91" transform="translate(160.96 1539.45) rotate(-82.13)"/><rect class="cls-11" x="1094.39" y="686.1" width="72.75" height="26.91" transform="translate(282.97 1723.88) rotate(-82.13)"/><rect class="cls-11" x="1283.93" y="674.31" width="26.91" height="54.52" transform="translate(-10.38 19.55) rotate(-0.86)"/><rect class="cls-11" x="1440.09" y="688.84" width="61.98" height="26.91" transform="translate(614.74 2089.37) rotate(-83.83)"/><rect class="cls-11" x="1626.22" y="715.5" width="60.46" height="26.91" transform="translate(540.2 2153.44) rotate(-75.67)"/></g><g id="NoNoZone"><rect class="cls-10" x="647.85" y="288.07" width="40.09" height="69.77"/><rect class="cls-10" x="114.08" y="153.93" width="40.09" height="69.77"/><rect class="cls-10" x="1375.23" y="188.82" width="40.09" height="69.77"/><rect class="cls-10" x="1585.24" y="340.33" width="40.09" height="69.77"/><g id="Easement"><polygon class="cls-10" points="214.13 435.12 188.9 392.14 2058.7 465.65 2058.7 507.41 214.13 435.12"/></g><g class="cls-17"><polygon class="cls-10" points="2057.38 302.56 119.61 274.9 121.39 250.06 2059.16 277.72 2057.38 302.56"/></g><path class="cls-10" d="M2057.72,507.37l1-342L73,87.59c34.81,155.7,93.17,269.52,141.14,347.53Z"/></g><g id="Ugh"><g class="cls-3"><text class="cls-12" transform="translate(1232.72 605.61)">Block A</text><text class="cls-12" transform="translate(1196.92 622.41)">52,380 squa</text><text class="cls-13" transform="translate(1266.58 622.41)">r</text><text class="cls-12" transform="translate(1271.02 622.41)">ed </text><text class="cls-13" transform="translate(1288.9 622.41)">f</text><text class="cls-12" transform="translate(1292.81 622.41)">eet</text><text class="cls-12" transform="translate(1218.3 639.21)">1.2024 ac</text><text class="cls-13" transform="translate(1273.09 639.21)">r</text><text class="cls-12" transform="translate(1277.53 639.21)">es</text></g><g class="cls-3"><text class="cls-12" transform="translate(962.05 1332.5)">Block B</text><text class="cls-12" transform="translate(925.76 1349.3)">28,584 squa</text><text class="cls-13" transform="translate(995.42 1349.3)">r</text><text class="cls-12" transform="translate(999.86 1349.3)">ed </text><text class="cls-13" transform="translate(1017.74 1349.3)">f</text><text class="cls-12" transform="translate(1021.65 1349.3)">eet</text></g><g class="cls-3"><text class="cls-12" transform="translate(1900.42 1159.03)">Block C</text><text class="cls-12" transform="translate(1864.4 1175.83)">39,492 squa</text><text class="cls-13" transform="translate(1934.06 1175.83)">r</text><text class="cls-12" transform="translate(1938.5 1175.83)">ed </text><text class="cls-13" transform="translate(1956.38 1175.83)">f</text><text class="cls-12" transform="translate(1960.28 1175.83)">eet</text></g><g class="cls-3"><text class="cls-12" transform="translate(595.57 1260.07)">Block E</text><text class="cls-12" transform="translate(555.34 1276.87)">100,188 squa</text><text class="cls-13" transform="translate(632.19 1276.87)">r</text><text class="cls-12" transform="translate(636.62 1276.87)">ed </text><text class="cls-13" transform="translate(654.5 1276.87)">f</text><text class="cls-12" transform="translate(658.41 1276.87)">eet</text></g><g class="cls-3"><text class="cls-12" transform="translate(1874.52 1309.44)">Block D</text><text class="cls-12" transform="translate(1835.51 1326.24)">100,368 squa</text><text class="cls-13" transform="translate(1912.35 1326.24)">r</text><text class="cls-12" transform="translate(1916.79 1326.24)">ed </text><text class="cls-13" transform="translate(1934.67 1326.24)">f</text><text class="cls-12" transform="translate(1938.57 1326.24)">eet</text></g><g class="cls-3"><text class="cls-12" transform="translate(563.09 591.11)">Block F</text><text class="cls-12" transform="translate(526.42 607.91)">28,080 squa</text><text class="cls-13" transform="translate(596.08 607.91)">r</text><text class="cls-12" transform="translate(600.52 607.91)">ed </text><text class="cls-13" transform="translate(618.39 607.91)">f</text><text class="cls-12" transform="translate(622.3 607.91)">eet</text></g><g class="cls-3"><text class="cls-12" transform="translate(871.6 1007.83)">Block H</text><text class="cls-12" transform="translate(836.08 1024.63)">30,168 squa</text><text class="cls-13" transform="translate(905.74 1024.63)">r</text><text class="cls-12" transform="translate(910.18 1024.63)">ed </text><text class="cls-13" transform="translate(928.06 1024.63)">f</text><text class="cls-12" transform="translate(931.97 1024.63)">eet</text></g><g class="cls-3"><text class="cls-18" transform="translate(985.26 1181.38)">Block I</text><text class="cls-18" transform="translate(945.57 1196.98)">1,980 squa</text><text class="cls-19" transform="translate(1003.58 1196.98)">r</text><text class="cls-18" transform="translate(1007.7 1196.98)">ed </text><text class="cls-19" transform="translate(1024.31 1196.98)">f</text><text class="cls-18" transform="translate(1027.93 1196.98)">eet ---</text></g><g class="cls-3"><text class="cls-18" transform="translate(735.47 929.23)">Block J</text><text class="cls-18" transform="translate(694.63 944.83)">---- 1,008 squa</text><text class="cls-19" transform="translate(771.37 944.83)">r</text><text class="cls-18" transform="translate(775.49 944.83)">ed </text><text class="cls-19" transform="translate(792.09 944.83)">f</text><text class="cls-18" transform="translate(795.72 944.83)">eet</text></g><g id="Bridge_Ugh" data-name="Bridge Ugh"><text class="cls-18" transform="translate(955.78 674.11)">B2</text><text class="cls-18" transform="translate(1126.75 699.57)">B3</text><text class="cls-18" transform="translate(1290.57 703.96)">B4</text><text class="cls-18" transform="translate(804.75 654.28)">B1</text><text class="cls-18" transform="translate(1463.23 703.96)">B5</text><text class="cls-18" transform="translate(1647.1 728.94)">B6</text><text class="cls-18" transform="translate(1938.11 1020.97)">B6</text><text class="cls-18" transform="translate(1757.14 1116.92)">B7</text><text class="cls-18" transform="translate(1529.39 1130.8)">B8</text><text class="cls-18" transform="translate(1035.93 1259.36)">B9</text><text class="cls-18" transform="translate(890.08 1218.28)">B10</text><text class="cls-18" transform="translate(774.26 1132.36)">B11</text><text class="cls-18" transform="translate(689.4 1030.7)">B12</text><text class="cls-18" transform="translate(558.71 807.55)">EB</text></g><g class="cls-3"><text class="cls-12" transform="translate(783.76 785.85)">Block K</text><text class="cls-12" transform="translate(747.47 802.65)">26,748 squa</text><text class="cls-13" transform="translate(817.13 802.65)">r</text><text class="cls-12" transform="translate(821.57 802.65)">ed </text><text class="cls-13" transform="translate(839.45 802.65)">f</text><text class="cls-12" transform="translate(843.36 802.65)">eet</text></g><g class="cls-3"><text class="cls-20" transform="translate(1026.8 51.18)">P</text><text class="cls-20" transform="translate(1045.77 51.18)">lano </text><text class="cls-21" transform="translate(1118.99 51.18)">C</text><text class="cls-20" transform="translate(1139.48 51.18)">e</text><text class="cls-20" transform="translate(1157.51 51.18)">n</text><text class="cls-20" transform="translate(1177.35 51.18)">t</text><text class="cls-20" transform="translate(1189.27 51.18)">r</text><text class="cls-20" transform="translate(1200.86 51.18)">al</text><text class="cls-22" transform="translate(874.57 81.18)">1717 E Sp</text><text class="cls-22" transform="translate(975.32 81.18)">r</text><text class="cls-22" transform="translate(983.59 81.18)">ing </text><text class="cls-22" transform="translate(1022.59 81.18)">C</text><text class="cls-23" transform="translate(1037.02 81.18)">r</text><text class="cls-22" transform="translate(1044.94 81.18)">eek </text><text class="cls-23" transform="translate(1087.02 81.18)">P</text><text class="cls-24" transform="translate(1100.19 81.18)">k</text><text class="cls-24" transform="translate(1112.24 81.18)">w</text><text class="cls-22" transform="translate(1130.94 81.18)">y # 100, </text><text class="cls-22" transform="translate(1214.69 81.18)">P</text><text class="cls-22" transform="translate(1227.86 81.18)">lan</text><text class="cls-25" transform="translate(1259.69 81.18)">o</text><text class="cls-22" transform="translate(1272.81 81.18)">,</text><text class="cls-26" transform="translate(1277.99 81.18)"> </text><text class="cls-27" transform="translate(1282.26 81.18)">T</text><text class="cls-22" transform="translate(1295.24 81.18)">X 75074</text></g></g><text class="cls-28" transform="translate(420.07 844.16) rotate(71.42)">K <tspan class="cls-29" x="13.57" y="0">A</tspan><tspan class="cls-30" x="24.21" y="0">v</tspan><tspan x="32.69" y="0">enue</tspan></text><text class="cls-28" transform="translate(67.51 186.88) rotate(68.84)">K <tspan class="cls-29" x="13.57" y="0">A</tspan><tspan class="cls-30" x="24.21" y="0">v</tspan><tspan x="32.69" y="0">enue</tspan></text><text class="cls-28" transform="matrix(0.03, 1, -1, 0.03, 493.2, 1308.7)">K <tspan class="cls-29" x="13.57" y="0">A</tspan><tspan class="cls-30" x="24.21" y="0">v</tspan><tspan x="32.69" y="0">enue</tspan></text><text class="cls-28" transform="translate(583.71 1483) rotate(0.6)">East Sp<tspan class="cls-31" x="53.55" y="0">r</tspan><tspan x="59.51" y="0">ing </tspan><tspan class="cls-32" x="87.59" y="0">C</tspan><tspan class="cls-33" x="97.97" y="0">r</tspan><tspan x="103.68" y="0">eek </tspan><tspan class="cls-34" x="133.97" y="0">P</tspan><tspan x="143.08" y="0">a</tspan><tspan class="cls-31" x="151.76" y="0">r</tspan><tspan class="cls-35" x="157.71" y="0">k</tspan><tspan class="cls-36" x="166.39" y="0">w</tspan><tspan class="cls-37" x="179.57" y="0">a</tspan><tspan x="188.1" y="0">y</tspan></text><text class="cls-28" transform="translate(1535.97 1498.86) rotate(0.88)">East Sp<tspan class="cls-31" x="53.55" y="0">r</tspan><tspan x="59.51" y="0">ing </tspan><tspan class="cls-32" x="87.59" y="0">C</tspan><tspan class="cls-33" x="97.97" y="0">r</tspan><tspan x="103.68" y="0">eek </tspan><tspan class="cls-34" x="133.97" y="0">P</tspan><tspan x="143.08" y="0">a</tspan><tspan class="cls-31" x="151.76" y="0">r</tspan><tspan class="cls-35" x="157.71" y="0">k</tspan><tspan class="cls-36" x="166.39" y="0">w</tspan><tspan class="cls-37" x="179.57" y="0">a</tspan><tspan x="188.1" y="0">y</tspan></text></svg>